<?xml version="1.0" encoding="iso-8859-1"?>
<!-- Generator: Adobe Illustrator 19.0.0, SVG Export Plug-In . SVG Version: 6.00 Build 0)  -->
<svg version="1.1" id="Capa_1" xmlns="http://www.w3.org/2000/svg" xmlns:xlink="http://www.w3.org/1999/xlink" x="0px" y="0px"
	 viewBox="0 0 489.6 489.6" style="enable-background:new 0 0 489.6 489.6;" xml:space="preserve">
<g>
	<g>
		<g>
			<rect x="104.5" y="100.2" width="280.2" height="185.7"/>
			<path fill="#0082c8" d="M439.9,321V50.1H49.7v271.2h390.1V321H439.9z M86.6,91.3c0-5.1,3.9-8.9,8.9-8.9h298.4c5.1,0,8.9,3.9,8.9,8.9v204
				c0,5.1-3.9,8.9-8.9,8.9H95.6c-5.1,0-8.9-3.9-8.9-8.9L86.6,91.3z"/>
			<path fill="#0082c8" d="M441.8,340.8h-394L0,439.5h489.6L441.8,340.8z M238.2,354h13.2c5.4,0,10.1,4.3,10.1,10.1c0,5.4-4.3,10.1-10.1,10.1h-13.2
				c-5.4,0-10.1-4.3-10.1-10.1C228.1,358.3,232.8,354,238.2,354z M237.4,378.9h14.4c5.4,0,10.1,4.3,10.1,10.1
				c0,5.4-4.3,10.1-10.1,10.1h-14.4c-5.4,0-10.1-4.3-10.1-10.1C227.7,383.1,232,378.9,237.4,378.9z M185.3,354h13.2
				c5.4,0,10.1,4.3,10.1,10.1c0,5.4-4.3,10.1-10.1,10.1h-13.2c-5.4,0-10.1-4.3-10.1-10.1C175.2,358.3,179.9,354,185.3,354z
				 M179.5,378.9h14.8c5.4,0,10.1,4.3,10.1,10.1c0,5.4-4.3,10.1-10.1,10.1h-14.4c-5.4,0-10.1-4.3-10.1-10.1
				C169.8,383.2,174.1,378.9,179.5,378.9z M132.5,354h13.2c5.4,0,10.1,4.3,10.1,10.1c0,5.4-4.3,10.1-10.1,10.1h-13.2
				c-5.4,0-10.1-4.3-10.1-10.1C122.4,358.3,127.1,354,132.5,354z M121.6,378.9H136c5.4,0,10.1,4.3,10.1,10.1
				c0,5.4-4.3,10.1-10.1,10.1h-14.4c-5.4,0-10.1-4.3-10.1-10.1C111.9,383.1,116.2,378.9,121.6,378.9z M69.9,423.5H54.8
				c-5.4,0-10.1-4.3-10.1-10.1c0-5.4,4.3-10.1,10.1-10.1H70c5.4,0,10.1,4.3,10.1,10.1C80.1,419.2,75.8,423.5,69.9,423.5z
				 M78.5,398.7H64.1c-5.4,0-10.1-4.3-10.1-10.1c0-5.4,4.3-10.1,10.1-10.1h14.4c5.4,0,10.1,4.3,10.1,10.1
				C88.2,394.4,83.9,398.7,78.5,398.7z M92.5,373.8H79.3c-5.4,0-10.1-4.3-10.1-10.1c0-5.4,4.3-10.1,10.1-10.1h13.2
				c5.4,0,10.1,4.3,10.1,10.1C102.6,369.5,98.3,373.8,92.5,373.8z M252.2,423.5H115.8c-5.4,0-10.1-4.3-10.1-10.1
				c0-5.4,4.3-10.1,10.1-10.1h136.8c5.4,0,10.1,4.3,10.1,10.1C262.3,419.3,258,423.5,252.2,423.5z M281.3,363.7
				c0-5.4,4.3-10.1,10.1-10.1h13.2c5.4,0,10.1,4.3,10.1,10.1c0,5.4-4.3,10.1-10.1,10.1h-13.2C285.6,373.8,281.3,369.5,281.3,363.7z
				 M295.3,378.9h14.4c5.4,0,10.1,4.3,10.1,10.1c0,5.4-4.3,10.1-10.1,10.1h-14.4c-5.4,0-10.1-4.3-10.1-10.1
				C285.6,383.1,289.9,378.9,295.3,378.9z M313.2,423.5H298c-5.4,0-10.1-4.3-10.1-10.1c0-5.4,4.3-10.1,10.1-10.1h15.2
				c5.4,0,10.1,4.3,10.1,10.1C322.9,419.3,318.6,423.5,313.2,423.5z M334.2,363.7c0-5.4,4.3-10.1,10.1-10.1h13.2
				c5.4,0,10.1,4.3,10.1,10.1c0,5.4-4.3,10.1-10.1,10.1h-13.2C338.4,373.8,334.2,369.5,334.2,363.7z M343.5,389
				c0-5.4,4.3-10.1,10.1-10.1H368c5.4,0,10.1,4.3,10.1,10.1c0,5.4-4.3,10.1-10.1,10.1h-14.4C347.8,398.7,343.5,394.4,343.5,389z
				 M373.8,423.5h-15.2c-5.4,0-10.1-4.3-10.1-10.1c0-5.4,4.3-10.1,10.1-10.1h15.2c5.4,0,10.1,4.3,10.1,10.1
				C383.9,419.3,379.2,423.5,373.8,423.5z M387,363.7c0-5.4,4.3-10.1,10.1-10.1h13.2c5.4,0,10.1,4.3,10.1,10.1
				c0,5.4-4.3,10.1-10.1,10.1h-13.2C391.3,373.8,387,369.5,387,363.7z M401.4,389c0-5.4,4.3-10.1,10.1-10.1h14.4
				c5.4,0,10.1,4.3,10.1,10.1c0,5.4-4.3,10.1-10.1,10.1h-14.4C405.7,398.7,401.4,394.4,401.4,389z M434.8,423.5h-15.2
				c-5.4,0-10.1-4.3-10.1-10.1c0-5.4,4.3-10.1,10.1-10.1h15.2c5.4,0,10.1,4.3,10.1,10.1C444.5,419.3,440.3,423.5,434.8,423.5z"/>
		</g>
	</g>
</g>
<g>
</g>
<g>
</g>
<g>
</g>
<g>
</g>
<g>
</g>
<g>
</g>
<g>
</g>
<g>
</g>
<g>
</g>
<g>
</g>
<g>
</g>
<g>
</g>
<g>
</g>
<g>
</g>
<g>
</g>
</svg>
