<?xml version="1.0" encoding="iso-8859-1"?>
<!-- Generator: Adobe Illustrator 19.0.0, SVG Export Plug-In . SVG Version: 6.00 Build 0)  -->
<svg version="1.1" id="Layer_1" xmlns="http://www.w3.org/2000/svg" xmlns:xlink="http://www.w3.org/1999/xlink" x="0px" y="0px"
	 viewBox="0 0 491.71 491.71" style="enable-background:new 0 0 491.71 491.71;" xml:space="preserve">
<g>
	<g>
		<path fill="#f2f2f2" d="M337.92,51.295v-20.48c0-16.94-13.78-30.72-30.72-30.72H184.32c-16.94,0-30.72,13.78-30.72,30.72v20.48H0v317.44h491.52
			V51.295H337.92z M174.08,30.815c0-5.645,4.595-10.24,10.24-10.24H307.2c5.645,0,10.24,4.595,10.24,10.24v20.48H174.08V30.815z
			 M471.04,348.255H20.48V160.522l140.8,75.093h53.76v30.72h61.44v-30.72h53.76l140.8-75.093V348.255z M235.52,245.855v-30.72
			c0-5.645,4.595-10.24,10.24-10.24c5.645,0,10.24,4.595,10.24,10.24v30.72H235.52z M471.04,137.311l-145.92,77.824h-48.64
			c0-16.94-13.78-30.72-30.72-30.72s-30.72,13.78-30.72,30.72H166.4L20.48,137.311V71.775H153.6h184.32h133.12V137.311z"/>
	</g>
</g>
<g>
	<g>
		<path fill="#f2f2f2" d="M439.05,399.455H51.2c-25.41,0-46.08,20.67-46.08,46.08s20.67,46.08,46.08,46.08h387.85l52.66-46.08L439.05,399.455z
			 M102.4,471.135H51.2c-14.115,0-25.6-11.485-25.6-25.6s11.485-25.6,25.6-25.6h51.2V471.135z M378.88,471.135h-256v-51.2h256
			V471.135z M431.35,471.135h-31.99v-51.2h31.99l29.26,25.6L431.35,471.135z"/>
	</g>
</g>
<g>
</g>
<g>
</g>
<g>
</g>
<g>
</g>
<g>
</g>
<g>
</g>
<g>
</g>
<g>
</g>
<g>
</g>
<g>
</g>
<g>
</g>
<g>
</g>
<g>
</g>
<g>
</g>
<g>
</g>
</svg>
